<svg id="Layer_1" data-name="Layer 1" xmlns="http://www.w3.org/2000/svg" viewBox="0 0 391.08436 144.49622">
  <defs>
    <style>
      .cls-1 {
        fill: #0c4a6e;
      }

      .cls-2 {
        fill: #767c7c;
      }
    </style>
  </defs>
  <g>
    <path class="cls-1" d="M380.21226,332.381a2.67532,2.67532,0,1,0,2.67532-2.67531A2.6758,2.6758,0,0,0,380.21226,332.381Z" transform="translate(-294.86388 -233.45534)"/>
    <path class="cls-1" d="M305.60816,353.75723a2.67561,2.67561,0,1,0,2.67591-2.67531A2.67554,2.67554,0,0,0,305.60816,353.75723Z" transform="translate(-294.86388 -233.45534)"/>
    <path class="cls-1" d="M358.86769,375.27625a2.67532,2.67532,0,1,0,2.67592-2.67531A2.67555,2.67555,0,0,0,358.86769,375.27625Z" transform="translate(-294.86388 -233.45534)"/>
    <path class="cls-1" d="M348.1527,359.10725a2.67561,2.67561,0,1,0,2.67591-2.67531A2.675,2.675,0,0,0,348.1527,359.10725Z" transform="translate(-294.86388 -233.45534)"/>
    <path class="cls-1" d="M369.5582,347.69267a2.67531,2.67531,0,1,0,2.67531-2.67531A2.67542,2.67542,0,0,0,369.5582,347.69267Z" transform="translate(-294.86388 -233.45534)"/>
    <path class="cls-1" d="M337.53807,371.96168a2.67532,2.67532,0,1,0,2.67592-2.67652A2.67707,2.67707,0,0,0,337.53807,371.96168Z" transform="translate(-294.86388 -233.45534)"/>
    <path class="cls-1" d="M326.893,364.49193a2.675,2.675,0,1,0,2.67531-2.67531A2.67528,2.67528,0,0,0,326.893,364.49193Z" transform="translate(-294.86388 -233.45534)"/>
    <path class="cls-1" d="M316.34766,339.97322a2.67531,2.67531,0,1,0,2.67531-2.67652A2.67618,2.67618,0,0,0,316.34766,339.97322Z" transform="translate(-294.86388 -233.45534)"/>
    <g>
      <path class="cls-1" d="M340.214,261.7654a16.46352,16.46352,0,1,0,16.46291,16.46352A16.482,16.482,0,0,0,340.214,261.7654Zm0,12.101a4.36754,4.36754,0,0,0-4.36187,4.36248,3.38985,3.38985,0,0,1-6.77971,0A11.15413,11.15413,0,0,1,340.214,267.088a3.38925,3.38925,0,0,1,0,6.77849Z" transform="translate(-294.86388 -233.45534)"/>
      <path class="cls-1" d="M378.98035,242.22808H365.62767a4.91441,4.91441,0,0,1-4.48674-2.92444,9.83038,9.83038,0,0,0-8.97407-5.8483H327.18094a9.01381,9.01381,0,0,0-8.42682,5.8483,4.50447,4.50447,0,0,1-4.21312,2.92444H301.44582a6.58158,6.58158,0,0,0-6.58194,6.58194V317.5025a2.66785,2.66785,0,1,0,5.3357,0s.01254-7.25047.01254-7.25823c0-1.28687.12367-3.62822,2.707-3.62822a2.67733,2.67733,0,0,1,2.67652,2.67591c0,.1625-.04243,27.21614-.05616,35.87656a2.66254,2.66254,0,0,0,5.32493-.03584c-.01374-5.9642-.04481-19.86293-.04481-20.00033a2.67492,2.67492,0,0,1,5.34765-.10934c.0012.01614.03823,7.25823.03823,7.25823a2.66755,2.66755,0,0,0,5.33509,0s.07229-11.88058.07229-11.91046a2.60121,2.60121,0,0,1,2.62753-2.71774,2.67681,2.67681,0,0,1,2.67591,2.67591c0,.132-.02928,26.23516-.03763,36.23862a2.66457,2.66457,0,1,0,5.32911.01614c-.00538-6.85379-.02091-16.074-.02091-16.1648a2.67617,2.67617,0,0,1,2.67651-2.67592,2.56347,2.56347,0,0,1,2.6819,2.6777v23.193a2.66757,2.66757,0,1,0,5.33509-.01734c-.00121-9.86544-.006-32.46342-.006-32.49628a2.67591,2.67591,0,0,1,5.35182,0c0,.05736-.00656,13.46439-.00955,19.32821a2.66552,2.66552,0,1,0,5.33091.03167c-.00955-7.879-.03823-30.554-.03823-30.68007a2.67622,2.67622,0,1,1,5.35243,0c0,.02747.01674,37.09116.0221,47.40586a2.66785,2.66785,0,1,0,5.33569,0c-.00478-9.80869-.0221-43.68205-.0221-43.77943a2.6751,2.6751,0,0,1,5.32554-.36324c.00178.01493.03285,16.60332.03285,16.60332a2.66755,2.66755,0,1,0,5.33509,0s-.01613-29.32747-.01613-29.42726a2.67516,2.67516,0,0,1,2.67591-2.67531,2.64226,2.64226,0,0,1,2.57494,2.6771c0,.03345.101,14.54276.101,14.54276a2.66755,2.66755,0,0,0,5.33509,0V248.81A6.5807,6.5807,0,0,0,378.98035,242.22808ZM340.214,301.47092a23.24172,23.24172,0,1,1,23.24142-23.24142A23.26848,23.26848,0,0,1,340.214,301.47092Z" transform="translate(-294.86388 -233.45534)"/>
    </g>
  </g>
  <g>
    <path class="cls-2" d="M406.897,323.51778a4.13029,4.13029,0,0,1-3.10254-1.27539,4.34544,4.34544,0,0,1-1.23242-3.14453V261.55245a4.27392,4.27392,0,0,1,1.2749-3.145,4.1732,4.1732,0,0,1,3.06006-1.27491,4.3545,4.3545,0,0,1,4.41992,4.41993v53.12548h30.77a4.42009,4.42009,0,1,1,0,8.83985Z" transform="translate(-294.86388 -233.45534)"/>
    <path class="cls-2" d="M468.60645,323.94258a21.67886,21.67886,0,0,1-10.49707-2.50781,18.07428,18.07428,0,0,1-7.31055-7.35254,24.30086,24.30086,0,0,1-2.67774-11.89941V281.27217a4.3356,4.3356,0,1,1,8.66993,0v20.91065a15.60283,15.60283,0,0,0,1.78515,7.8623,11.11145,11.11145,0,0,0,4.84571,4.58985,15.53647,15.53647,0,0,0,6.88476,1.4873,14.16544,14.16544,0,0,0,6.50195-1.44434,12.00479,12.00479,0,0,0,4.54786-3.91015,9.51335,9.51335,0,0,0,1.70019-5.52539h5.35449a17.92266,17.92266,0,0,1-2.59179,9.52051,18.69336,18.69336,0,0,1-7.05567,6.71484A20.6523,20.6523,0,0,1,468.60645,323.94258Zm18.78515-.4248a4.21386,4.21386,0,0,1-4.335-4.335V281.27217a4.17209,4.17209,0,0,1,1.23242-3.145,4.31712,4.31712,0,0,1,7.4375,3.145v37.91065a4.28753,4.28753,0,0,1-1.19043,3.10254A4.1702,4.1702,0,0,1,487.3916,323.51778Z" transform="translate(-294.86388 -233.45534)"/>
    <path class="cls-2" d="M504.13574,323.60274a4.21386,4.21386,0,0,1-4.335-4.335V281.44209a4.17209,4.17209,0,0,1,1.23242-3.145,4.31712,4.31712,0,0,1,7.4375,3.145v37.82569a4.28753,4.28753,0,0,1-1.19043,3.10254A4.1702,4.1702,0,0,1,504.13574,323.60274Zm28.38965,0a4.21386,4.21386,0,0,1-4.335-4.335V294.95723q0-5.354-2.63477-7.94726a9.403,9.403,0,0,0-6.88574-2.59278,9.62237,9.62237,0,0,0-7.30957,3.06055,10.92943,10.92943,0,0,0-2.88965,7.81933h-5.35547a20.62805,20.62805,0,0,1,2.21-9.73242,16.55622,16.55622,0,0,1,6.12011-6.5874,16.82472,16.82472,0,0,1,8.92481-2.37988,17.0796,17.0796,0,0,1,8.585,2.125,14.49546,14.49546,0,0,1,5.82324,6.24756,21.96111,21.96111,0,0,1,2.082,9.9873v24.31055a4.28753,4.28753,0,0,1-1.19043,3.10254A4.17021,4.17021,0,0,1,532.52539,323.60274Zm28.30469,0a4.21386,4.21386,0,0,1-4.335-4.335V294.95723q0-5.354-2.63477-7.94726a10.29049,10.29049,0,0,0-14.15234.46777,11.01953,11.01953,0,0,0-2.84766,7.81933h-7.05469a19.42762,19.42762,0,0,1,2.37989-9.73242,16.95445,16.95445,0,0,1,6.67187-6.5874,19.9125,19.9125,0,0,1,9.81836-2.37988,17.08219,17.08219,0,0,1,8.585,2.125,14.49911,14.49911,0,0,1,5.82227,6.24756,21.96124,21.96124,0,0,1,2.082,9.9873v24.31055a4.28683,4.28683,0,0,1-1.18945,3.10254A4.17246,4.17246,0,0,1,560.83008,323.60274Z" transform="translate(-294.86388 -233.45534)"/>
    <path class="cls-2" d="M577.48926,269.45723A5.66055,5.66055,0,1,1,581.44141,267.8,5.39374,5.39374,0,0,1,577.48926,269.45723Zm0,54.06055a4.21386,4.21386,0,0,1-4.335-4.335V281.35713a4.172,4.172,0,0,1,1.23242-3.145,4.31667,4.31667,0,0,1,7.4375,3.145v37.82569a4.29083,4.29083,0,0,1-1.18945,3.10254A4.17395,4.17395,0,0,1,577.48926,323.51778Z" transform="translate(-294.86388 -233.45534)"/>
    <path class="cls-2" d="M595.083,323.60274a4.21386,4.21386,0,0,1-4.335-4.335V281.35713a4.172,4.172,0,0,1,1.23242-3.145,4.31712,4.31712,0,0,1,7.4375,3.145v37.91065a4.28753,4.28753,0,0,1-1.19043,3.10254A4.17023,4.17023,0,0,1,595.083,323.60274Zm34.93457,0a4.21386,4.21386,0,0,1-4.335-4.335V298.35762a15.545,15.545,0,0,0-1.78516-7.90527,11.23981,11.23981,0,0,0-4.80273-4.54688,15.47851,15.47851,0,0,0-6.92676-1.48828,14.24628,14.24628,0,0,0-6.46,1.44531,12.08674,12.08674,0,0,0-4.59082,3.86719,9.44965,9.44965,0,0,0-1.69922,5.56738H594.0625a17.84944,17.84944,0,0,1,2.59277-9.5625,18.70952,18.70952,0,0,1,7.09766-6.67236,20.72786,20.72786,0,0,1,10.11426-2.46484,21.70705,21.70705,0,0,1,10.498,2.50732,18.08989,18.08989,0,0,1,7.30957,7.35254,24.31008,24.31008,0,0,1,2.67774,11.90039v20.91016a4.21386,4.21386,0,0,1-4.335,4.335Z" transform="translate(-294.86388 -233.45534)"/>
    <path class="cls-2" d="M660.87305,323.85762a20.45785,20.45785,0,0,1-11.13575-3.10254A22.04345,22.04345,0,0,1,641.96,312.34a25.05161,25.05161,0,0,1-2.84766-12.02734,23.63819,23.63819,0,0,1,3.10254-12.07031,22.95273,22.95273,0,0,1,8.415-8.45752,23.43462,23.43462,0,0,1,32.21582,8.45752,23.6478,23.6478,0,0,1,3.10254,12.07031h-3.31543A25.05172,25.05172,0,0,1,679.78516,312.34a22.05847,22.05847,0,0,1-7.77735,8.415A20.46156,20.46156,0,0,1,660.87305,323.85762Zm1.70019-7.65039a14.50421,14.50421,0,0,0,7.73438-2.082,14.81543,14.81543,0,0,0,5.35547-5.69531,16.781,16.781,0,0,0,1.95507-8.11719,16.96851,16.96851,0,0,0-1.95507-8.20313,14.83327,14.83327,0,0,0-5.35547-5.69433,15.32454,15.32454,0,0,0-15.42774,0,15.02136,15.02136,0,0,0-5.43945,5.69433,16.66737,16.66737,0,0,0-1.99805,8.20313,16.4841,16.4841,0,0,0,1.99805,8.11719,15.00312,15.00312,0,0,0,5.43945,5.69531A14.5669,14.5669,0,0,0,662.57324,316.20723Zm19.03906,7.39551a4.21538,4.21538,0,0,1-4.335-4.335V306.2629l1.61524-9.01075,7.05566,3.06055v18.95508a4.21543,4.21543,0,0,1-4.33594,4.335Z" transform="translate(-294.86388 -233.45534)"/>
  </g>
</svg>
